<svg xmlns="http://www.w3.org/2000/svg" width="10.81" height="14.431" viewBox="0 0 10.81 14.431">
  <path id="Path_693" data-name="Path 693" d="M626.49,470.858a5.445,5.445,0,0,1,5.349,4.764,6.6,6.6,0,0,1-.786,3.738,20,20,0,0,1-3.174,4.555c-.38.428-.787.831-1.179,1.248-.141.149-.271.177-.429.018a22.364,22.364,0,0,1-4.373-5.823,7.046,7.046,0,0,1-.83-3.206,5.419,5.419,0,0,1,4.722-5.226C626.023,470.9,626.257,470.881,626.49,470.858Zm2.466,5.431a2.479,2.479,0,1,0-2.472,2.472A2.484,2.484,0,0,0,628.955,476.289Z" transform="translate(-621.068 -470.858)" opacity="0.8"/>
</svg>
