<svg id="Component_7_4" data-name="Component 7 – 4" xmlns="http://www.w3.org/2000/svg" width="9.367" height="13.991" viewBox="0 0 9.367 13.991">
  <path id="Path_699" data-name="Path 699" d="M655.127,522.994l5.126,5.261c-.857,0-1.6.007-2.336-.009-.1,0-.207-.11-.288-.192q-2.2-2.249-4.387-4.509a.639.639,0,0,1-.176-.381c-.018-.616-.008-1.232-.008-1.913.234,0,.454,0,.674,0a26.4,26.4,0,0,0,2.912-.1,2.3,2.3,0,0,0,1.8-1.632h-5.352V517.74h5.31a2.435,2.435,0,0,0-2.3-1.754c-1-.012-2,0-3.021,0v-1.718h9.339v1.7H659.55c.223.559.425,1.1.659,1.622.036.081.214.13.328.132.612.013,1.225.006,1.875.006v1.777c-.62,0-1.242.006-1.865,0-.212,0-.315.043-.387.286a4.24,4.24,0,0,1-4.2,3.206C655.725,523,655.486,522.994,655.127,522.994Z" transform="translate(-653.056 -514.266)"/>
</svg>
