<svg xmlns="http://www.w3.org/2000/svg" width="24.303" height="23.104" viewBox="0 0 24.303 23.104">
  <g id="Group_444" data-name="Group 444" transform="translate(0.5 0.508)">
    <path id="Union_1" data-name="Union 1" d="M15.088,22.065c-1.143-.52-2.291-1.031-3.437-1.545q0-3.261-.005-6.522c.177-.206.352-.415.533-.618q2.112-2.37,4.23-4.733c.112-.125.1-.183-.02-.281q-.377-.314-.73-.652c-.108-.1-.166-.1-.265.014-.495.565-1,1.123-1.5,1.681q-1.116,1.244-2.235,2.487c0-.129-.007-.259-.007-.386q0-4.964,0-9.928C12.8,1.067,13.945.556,15.088.035c.14-.062.192-.027.261.094.588,1.033,1.185,2.062,1.775,3.093a.369.369,0,0,0,.275.2c1.172.242,2.34.5,3.511.74.135.028.171.073.157.208-.132,1.189-.254,2.381-.388,3.571a.374.374,0,0,0,.112.322q1.184,1.307,2.362,2.617c.043.047.071.12.151.125V11.1c-.019.008-.045.01-.058.024q-1.257,1.393-2.514,2.786a.237.237,0,0,0-.055.208c.129,1.191.252,2.381.387,3.571.019.172-.024.231-.2.267-1.149.234-2.3.485-3.445.721a.409.409,0,0,0-.308.226c-.585,1.026-1.18,2.047-1.764,3.073-.047.082-.086.125-.148.125A.285.285,0,0,1,15.088,22.065Zm-7.159-.131c-.564-1-1.141-1.982-1.7-2.979a.576.576,0,0,0-.432-.307c-1.135-.231-2.267-.48-3.4-.713-.137-.028-.171-.073-.157-.206.132-1.191.253-2.381.387-3.571a.369.369,0,0,0-.111-.322Q1.329,12.531.151,11.219C.108,11.172.08,11.1,0,11.1V11a.28.28,0,0,0,.074-.039Q1.316,9.589,2.557,8.213a.26.26,0,0,0,.071-.225c-.13-1.19-.254-2.38-.386-3.571-.017-.148-.006-.221.173-.258,1.135-.229,2.267-.477,3.4-.712a.528.528,0,0,0,.4-.283C6.787,2.149,7.375,1.141,7.955.129c.057-.1.095-.169.238-.1,1.15.524,2.3,1.038,3.457,1.555q0,4.964,0,9.928c0,.129.005.257.007.386l-1.046,1.2a2.27,2.27,0,0,0-.17-.215c-.9-.9-1.8-1.8-2.7-2.705-.113-.113-.177-.146-.3-.009-.217.242-.453.47-.69.693-.1.1-.117.155-.006.265q1.911,1.9,3.811,3.811c.1.1.154.1.246-.007.274-.314.558-.617.839-.925q0,3.261.005,6.522c-1.131.508-2.266,1.011-3.394,1.529a.353.353,0,0,1-.143.04C8.036,22.089,7.987,22.036,7.929,21.934Z" fill="#0057fd" stroke="rgba(0,0,0,0)" stroke-width="1"/>
    <path id="Path_23" data-name="Path 23" d="M228.954,346.162c-.28.308-.565.612-.839.925-.092.106-.144.109-.246.007q-1.9-1.911-3.812-3.811c-.11-.109-.1-.167.006-.265.237-.223.473-.45.69-.693.123-.137.188-.1.3.009.9.9,1.8,1.8,2.7,2.705a2.458,2.458,0,0,1,.169.215l1.046-1.2q1.118-1.243,2.235-2.486c.5-.559,1-1.117,1.5-1.682.1-.114.159-.116.266-.014q.353.338.73.651c.118.1.132.157.021.281q-2.121,2.361-4.23,4.734C229.306,345.746,229.131,345.956,228.954,346.162Z" transform="translate(-217.308 -332.165)" fill="#fefefe"/>
  </g>
</svg>
