<svg xmlns="http://www.w3.org/2000/svg" xmlns:xlink="http://www.w3.org/1999/xlink" width="634.634" height="22.49" viewBox="0 0 634.634 22.49">
  <defs>
    <linearGradient id="linear-gradient" x1="0.5" x2="0.5" y2="1" gradientUnits="objectBoundingBox">
      <stop offset="0" stop-color="#fff"/>
      <stop offset="1" stop-color="#dedede"/>
    </linearGradient>
  </defs>
  <path id="Path_689" data-name="Path 689" d="M-316.992,0h3.926V-7.072H-303v-3.094h-10.062V-14.04h11.076v-3.3h-15Zm17.238,0h3.952V-12.948h-3.952Zm0-14.092h3.952v-3.25h-3.952ZM-292.63,0h3.952V-6.136a3.073,3.073,0,0,1,1.144-2.834,4.785,4.785,0,0,1,2.678-.754,5.063,5.063,0,0,1,1.118.13v-3.692h-.338c-2.418,0-3.484.6-4.6,2.548v-2.21h-3.952Zm10.27-4.264a3.976,3.976,0,0,0,1.482,3.146c1.378,1.092,3.3,1.612,5.98,1.612a9.362,9.362,0,0,0,5.382-1.3,4.153,4.153,0,0,0,1.846-3.406c0-2.184-1.508-3.536-4.316-3.8-5.538-.546-5.85-.65-5.85-1.482,0-.78.884-1.222,2.47-1.222a4.639,4.639,0,0,1,2.314.494,1.354,1.354,0,0,1,.65,1.144h4.29a3.231,3.231,0,0,0-.676-2.184c-1.04-1.352-3.432-2.184-6.344-2.184a9.3,9.3,0,0,0-5.1,1.2,4.176,4.176,0,0,0-1.924,3.432A3.174,3.174,0,0,0-281.086-6.4,6.1,6.1,0,0,0-277.6-5.174c3.146.338,4.342.494,4.888.624a.976.976,0,0,1,.806.91c0,.858-1.04,1.378-2.808,1.378-2.106,0-3.042-.6-3.224-2Zm24.778,1.17h-1.352c-1.4,0-1.69-.312-1.69-1.82v-5.174h3.042v-2.86h-3.042v-3.718h-3.952v3.718h-2.08v2.86h2.08v5.46c0,2.236.078,2.7.65,3.38C-263.2-.338-262.08,0-259.792,0h2.21ZM-248.56,0h3.952V-12.948h-3.952Zm0-14.092h3.952v-3.25h-3.952ZM-241.436,0h3.952V-6.474a4.033,4.033,0,0,1,.416-2.132,3.421,3.421,0,0,1,3.042-1.586,3.1,3.1,0,0,1,2.288.858,2.912,2.912,0,0,1,.572,2.132V0h3.978V-8.06c0-1.872-.13-2.5-.65-3.25a5.4,5.4,0,0,0-4.6-1.976,6.279,6.279,0,0,0-3.458.91,6.424,6.424,0,0,0-1.586,1.586v-2.158h-3.952ZM-223.7,0h3.978V-10.088h3.094v-2.86h-3.094v-.676c0-.676.312-.858,1.534-.858h1.56v-3.094h-2.86c-3.042,0-4.212.91-4.212,3.3v1.326h-1.456v2.86h1.456Zm9.048,0h3.952V-17.342h-3.952Zm21.372-12.948h-3.952v6.474a3.434,3.434,0,0,1-.728,2.574,3.651,3.651,0,0,1-2.756,1.144,3.049,3.049,0,0,1-2.314-.91,2.947,2.947,0,0,1-.52-2.08v-7.2h-3.978v8.06c0,1.9.1,2.47.65,3.25a5.4,5.4,0,0,0,4.6,1.976,6.506,6.506,0,0,0,3.458-.91,6.424,6.424,0,0,0,1.586-1.586V0h3.952Zm13.91,8.97A3.437,3.437,0,0,1-182.7-2.236a3.829,3.829,0,0,1-3.172-1.274,3.3,3.3,0,0,1-.65-2.028h11.752v-.546c0-4.524-3.12-7.358-8.086-7.358-4.836,0-7.852,2.73-7.852,7.1,0,4.264,2.99,6.838,7.9,6.838,3.926,0,6.474-1.456,7.9-4.472Zm-6.942-3.978c.286-1.768,1.586-2.73,3.588-2.73a3.339,3.339,0,0,1,3.614,2.73ZM-172.2,0h3.952V-6.474a4.033,4.033,0,0,1,.416-2.132,3.421,3.421,0,0,1,3.042-1.586,3.1,3.1,0,0,1,2.288.858,2.912,2.912,0,0,1,.572,2.132V0h3.978V-8.06c0-1.872-.13-2.5-.65-3.25a5.4,5.4,0,0,0-4.6-1.976,6.279,6.279,0,0,0-3.458.91,6.424,6.424,0,0,0-1.586,1.586v-2.158H-172.2Zm28.626-4.732a3.408,3.408,0,0,1-3.536,2.5,3.925,3.925,0,0,1-4.082-4.212,3.886,3.886,0,0,1,4.056-4.238c2.08,0,3.25.962,3.562,2.886h4a5.223,5.223,0,0,0-1.56-3.406,8.137,8.137,0,0,0-6.188-2.236,8.948,8.948,0,0,0-5.46,1.586,6.79,6.79,0,0,0-2.6,5.382c0,4.134,3.25,6.968,8.008,6.968a9.864,9.864,0,0,0,5.59-1.612,5.632,5.632,0,0,0,2.21-3.614Zm17.108.754a3.437,3.437,0,0,1-3.328,1.742,3.829,3.829,0,0,1-3.172-1.274,3.3,3.3,0,0,1-.65-2.028h11.752v-.546c0-4.524-3.12-7.358-8.086-7.358-4.836,0-7.852,2.73-7.852,7.1,0,4.264,2.99,6.838,7.9,6.838,3.926,0,6.474-1.456,7.9-4.472Zm-6.942-3.978c.286-1.768,1.586-2.73,3.588-2.73a3.339,3.339,0,0,1,3.614,2.73ZM-119.288,0h3.952V-6.136a3.073,3.073,0,0,1,1.144-2.834,4.785,4.785,0,0,1,2.678-.754,5.063,5.063,0,0,1,1.118.13v-3.692h-.338c-2.418,0-3.484.6-4.6,2.548v-2.21h-3.952Zm33.28-6.526A5.162,5.162,0,0,1-91.416-2.7,5.859,5.859,0,0,1-97.578-8.71c0-3.536,2.444-5.928,6.11-5.928a5.824,5.824,0,0,1,4.134,1.456,4.025,4.025,0,0,1,1.326,2.236h4.6c-.78-4.42-4.368-6.89-10.01-6.89a11.316,11.316,0,0,0-7.2,2.184A8.44,8.44,0,0,0-102-8.736c0,5.408,4.42,9.23,10.634,9.23,5.46,0,9.022-2.522,9.958-7.02Zm14.664-6.916c-5.018,0-8.45,2.782-8.45,6.864,0,4.316,3.3,7.072,8.476,7.072,5.044,0,8.4-2.782,8.4-6.968S-66.274-13.442-71.344-13.442Zm0,2.756A3.96,3.96,0,0,1-67.08-6.422a3.952,3.952,0,0,1-4.264,4.186,3.941,3.941,0,0,1-4.29-4.212A3.973,3.973,0,0,1-71.344-10.686ZM-60.372,0h3.952V-17.342h-3.952Zm7.124,0H-49.3V-17.342h-3.952ZM-41.86-8.71c.13-.858.312-1.17.728-1.43a4.329,4.329,0,0,1,2.34-.546c1.742,0,2.756.546,2.756,1.456,0,.806-.6,1.066-3.224,1.378-4.082.468-4.082.468-5.148.884a3.526,3.526,0,0,0-2.34,3.458c0,2.47,2,4,5.252,4a7.438,7.438,0,0,0,5.538-2.028L-35.62,0h3.978V-.39c-.364-.39-.468-.936-.468-2.34V-8.112c0-2.08-.312-3.016-1.3-3.848a8.918,8.918,0,0,0-5.538-1.482,8.363,8.363,0,0,0-5.3,1.482,3.914,3.914,0,0,0-1.716,3.25Zm5.8,3.094a2.55,2.55,0,0,1-.78,2.158,5.891,5.891,0,0,1-3.51,1.2c-1.4,0-2.236-.546-2.236-1.43a1.38,1.38,0,0,1,.936-1.3A9.222,9.222,0,0,1-39.52-5.46c2.5-.338,2.626-.364,3.458-.78ZM-28.912,0h3.952V-1.534A6.141,6.141,0,0,0-20.072.494,6.815,6.815,0,0,0-12.922-6.5c0-3.952-2.99-6.786-7.124-6.786a6.113,6.113,0,0,0-4.914,2.054v-6.11h-3.952Zm8.034-10.3a3.788,3.788,0,0,1,4,3.926,3.788,3.788,0,0,1-4,3.926,3.872,3.872,0,0,1-4.16-3.978A3.893,3.893,0,0,1-20.878-10.3ZM-2.5-13.442c-5.018,0-8.45,2.782-8.45,6.864,0,4.316,3.3,7.072,8.476,7.072,5.044,0,8.4-2.782,8.4-6.968S2.574-13.442-2.5-13.442Zm0,2.756A3.96,3.96,0,0,1,1.768-6.422,3.952,3.952,0,0,1-2.5-2.236a3.941,3.941,0,0,1-4.29-4.212A3.973,3.973,0,0,1-2.5-10.686ZM8.476,0h3.952V-6.136A3.073,3.073,0,0,1,13.572-8.97a4.785,4.785,0,0,1,2.678-.754,5.063,5.063,0,0,1,1.118.13v-3.692H17.03c-2.418,0-3.484.6-4.6,2.548v-2.21H8.476Zm15-8.71c.13-.858.312-1.17.728-1.43a4.329,4.329,0,0,1,2.34-.546c1.742,0,2.756.546,2.756,1.456,0,.806-.6,1.066-3.224,1.378C22-7.384,22-7.384,20.93-6.968A3.526,3.526,0,0,0,18.59-3.51c0,2.47,2,4,5.252,4A7.438,7.438,0,0,0,29.38-1.534L29.718,0H33.7V-.39c-.364-.39-.468-.936-.468-2.34V-8.112c0-2.08-.312-3.016-1.3-3.848a8.918,8.918,0,0,0-5.538-1.482,8.363,8.363,0,0,0-5.3,1.482A3.914,3.914,0,0,0,19.37-8.71Zm5.8,3.094a2.55,2.55,0,0,1-.78,2.158,5.891,5.891,0,0,1-3.51,1.2c-1.4,0-2.236-.546-2.236-1.43a1.38,1.38,0,0,1,.936-1.3,9.222,9.222,0,0,1,2.132-.468c2.5-.338,2.626-.364,3.458-.78ZM43.862-3.094H42.51c-1.4,0-1.69-.312-1.69-1.82v-5.174h3.042v-2.86H40.82v-3.718H36.868v3.718h-2.08v2.86h2.08v5.46c0,2.236.078,2.7.65,3.38C38.246-.338,39.364,0,41.652,0h2.21ZM45.942,0h3.952V-12.948H45.942Zm0-14.092h3.952v-3.25H45.942Zm14.95.65c-5.018,0-8.45,2.782-8.45,6.864,0,4.316,3.3,7.072,8.476,7.072,5.044,0,8.4-2.782,8.4-6.968S65.962-13.442,60.892-13.442Zm0,2.756a3.96,3.96,0,0,1,4.264,4.264,3.952,3.952,0,0,1-4.264,4.186A3.941,3.941,0,0,1,56.6-6.448,3.973,3.973,0,0,1,60.892-10.686ZM71.864,0h3.952V-6.474a4.032,4.032,0,0,1,.416-2.132,3.421,3.421,0,0,1,3.042-1.586,3.1,3.1,0,0,1,2.288.858A2.912,2.912,0,0,1,82.134-7.2V0h3.978V-8.06c0-1.872-.13-2.5-.65-3.25a5.4,5.4,0,0,0-4.6-1.976,6.279,6.279,0,0,0-3.458.91,6.424,6.424,0,0,0-1.586,1.586v-2.158H71.864ZM96.252,4.654h3.926V-1.43A6.634,6.634,0,0,0,104.936.494a7.089,7.089,0,0,0,4.42-1.43,6.415,6.415,0,0,0,2.626-5.434c0-4.082-2.912-6.916-7.1-6.916a5.677,5.677,0,0,0-4.68,1.924v-1.586H96.252Zm7.826-14.95A3.754,3.754,0,0,1,108-6.37a3.747,3.747,0,0,1-3.926,3.9c-2.548,0-4.16-1.534-4.16-3.978C99.918-8.762,101.582-10.3,104.078-10.3ZM114.556,0h3.952V-17.342h-3.952Zm11.388-8.71c.13-.858.312-1.17.728-1.43a4.329,4.329,0,0,1,2.34-.546c1.742,0,2.756.546,2.756,1.456,0,.806-.6,1.066-3.224,1.378-4.082.468-4.082.468-5.148.884a3.526,3.526,0,0,0-2.34,3.458c0,2.47,2,4,5.252,4a7.438,7.438,0,0,0,5.538-2.028L132.184,0h3.978V-.39c-.364-.39-.468-.936-.468-2.34V-8.112c0-2.08-.312-3.016-1.3-3.848a8.918,8.918,0,0,0-5.538-1.482,8.363,8.363,0,0,0-5.3,1.482,3.914,3.914,0,0,0-1.716,3.25Zm5.8,3.094a2.55,2.55,0,0,1-.78,2.158,5.891,5.891,0,0,1-3.51,1.2c-1.4,0-2.236-.546-2.236-1.43a1.38,1.38,0,0,1,.936-1.3,9.222,9.222,0,0,1,2.132-.468c2.5-.338,2.626-.364,3.458-.78Zm14.586,2.522h-1.352c-1.4,0-1.69-.312-1.69-1.82v-5.174h3.042v-2.86h-3.042v-3.718h-3.952v3.718h-2.08v2.86h2.08v5.46c0,2.236.078,2.7.65,3.38C140.712-.338,141.83,0,144.118,0h2.21ZM148.694,0h3.978V-10.088h3.094v-2.86h-3.094v-.676c0-.676.312-.858,1.534-.858h1.56v-3.094h-2.86c-3.042,0-4.212.91-4.212,3.3v1.326h-1.456v2.86h1.456Zm16.718-13.442c-5.018,0-8.45,2.782-8.45,6.864,0,4.316,3.3,7.072,8.476,7.072,5.044,0,8.4-2.782,8.4-6.968S170.482-13.442,165.412-13.442Zm0,2.756a3.96,3.96,0,0,1,4.264,4.264,3.952,3.952,0,0,1-4.264,4.186,3.941,3.941,0,0,1-4.29-4.212A3.973,3.973,0,0,1,165.412-10.686ZM176.384,0h3.952V-6.136A3.073,3.073,0,0,1,181.48-8.97a4.785,4.785,0,0,1,2.678-.754,5.063,5.063,0,0,1,1.118.13v-3.692h-.338c-2.418,0-3.484.6-4.6,2.548v-2.21h-3.952Zm10.842,0h3.952V-6.578a3.707,3.707,0,0,1,.442-2.184,3.129,3.129,0,0,1,2.73-1.4c1.924,0,2.678,1.014,2.678,3.588V0h3.952V-6.578a3.849,3.849,0,0,1,.624-2.47,3.14,3.14,0,0,1,2.574-1.144,2.472,2.472,0,0,1,2.184.962,5.2,5.2,0,0,1,.468,2.652V0h3.952V-7.41c0-1.924-.078-2.548-.442-3.3-.78-1.664-2.5-2.574-4.862-2.574a5.938,5.938,0,0,0-5.226,2.5,3.374,3.374,0,0,0-1.378-1.716,5.862,5.862,0,0,0-3.094-.754,6.051,6.051,0,0,0-4.81,2.184v-1.872h-3.744ZM220.9,0h3.952V-12.948H220.9Zm0-14.092h3.952v-3.25H220.9ZM228.02,0h3.952V-6.474a4.033,4.033,0,0,1,.416-2.132,3.421,3.421,0,0,1,3.042-1.586,3.1,3.1,0,0,1,2.288.858A2.912,2.912,0,0,1,238.29-7.2V0h3.978V-8.06c0-1.872-.13-2.5-.65-3.25a5.4,5.4,0,0,0-4.6-1.976,6.279,6.279,0,0,0-3.458.91,6.424,6.424,0,0,0-1.586,1.586v-2.158H228.02Zm24.6,0h3.978V-17.342h-3.978ZM260,0h3.952V-6.474a4.032,4.032,0,0,1,.416-2.132,3.421,3.421,0,0,1,3.042-1.586,3.1,3.1,0,0,1,2.288.858A2.912,2.912,0,0,1,270.27-7.2V0h3.978V-8.06c0-1.872-.13-2.5-.65-3.25a5.4,5.4,0,0,0-4.6-1.976,6.279,6.279,0,0,0-3.458.91,6.424,6.424,0,0,0-1.586,1.586v-2.158H260Zm32.838,0V-17.342h-3.952v6.11a6.147,6.147,0,0,0-4.914-2.054c-4.134,0-7.124,2.834-7.124,6.786A6.815,6.815,0,0,0,284,.494a6.107,6.107,0,0,0,4.888-2.028V0ZM284.8-10.3a3.872,3.872,0,0,1,4.16,3.978,3.893,3.893,0,0,1-4.16,3.874,3.788,3.788,0,0,1-4-3.926A3.8,3.8,0,0,1,284.8-10.3ZM296.036,0h3.952V-12.948h-3.952Zm0-14.092h3.952v-3.25h-3.952ZM307.424-8.71c.13-.858.312-1.17.728-1.43a4.329,4.329,0,0,1,2.34-.546c1.742,0,2.756.546,2.756,1.456,0,.806-.6,1.066-3.224,1.378-4.082.468-4.082.468-5.148.884a3.526,3.526,0,0,0-2.34,3.458c0,2.47,2,4,5.252,4a7.438,7.438,0,0,0,5.538-2.028L313.664,0h3.978V-.39c-.364-.39-.468-.936-.468-2.34V-8.112c0-2.08-.312-3.016-1.3-3.848a8.918,8.918,0,0,0-5.538-1.482,8.363,8.363,0,0,0-5.3,1.482,3.914,3.914,0,0,0-1.716,3.25Zm5.8,3.094a2.55,2.55,0,0,1-.78,2.158,5.891,5.891,0,0,1-3.51,1.2c-1.4,0-2.236-.546-2.236-1.43a1.379,1.379,0,0,1,.936-1.3,9.222,9.222,0,0,1,2.132-.468c2.5-.338,2.626-.364,3.458-.78Z" transform="translate(316.992 17.836)" fill="url(#linear-gradient)"/>
</svg>
