<svg xmlns="http://www.w3.org/2000/svg" width="38.96" height="45.731" viewBox="0 0 38.96 45.731">
  <g id="Group_413" data-name="Group 413" transform="translate(433.569 619.876)">
    <path id="Path_594" data-name="Path 594" d="M-433.569-598.728q0-8.308,0-16.616a4.243,4.243,0,0,1,4.54-4.523q8.97,0,17.94-.009a1.517,1.517,0,0,1,1.275.581q4.819,5.66,9.675,11.289a1.761,1.761,0,0,1,.449,1.243c-.013,4.833,0,9.666-.015,14.5a.727.727,0,0,0,.41.744,9.3,9.3,0,0,1,4.547,9.653,9.28,9.28,0,0,1-7.579,7.574,9.062,9.062,0,0,1-8.476-2.9,1,1,0,0,0-.818-.344q-8.705.012-17.411.005a4.246,4.246,0,0,1-4.536-4.527Q-433.57-590.394-433.569-598.728Zm1.694.024q0,8.411,0,16.823a2.545,2.545,0,0,0,2.517,2.65c5.555.013,11.11,0,16.665.011.373,0,.411-.09.263-.417a9.238,9.238,0,0,1-.69-5.467,9.331,9.331,0,0,1,11.173-7.446c.452.1.564.043.562-.435q-.026-6.375,0-12.749c0-.45-.089-.606-.575-.6-1.781.031-3.562.017-5.343.011a4.22,4.22,0,0,1-4.251-4.265c-.006-2.328-.015-4.656.01-6.983.005-.481-.119-.617-.61-.615-5.643.018-11.287.011-16.93.012a2.584,2.584,0,0,0-2.793,2.8Q-431.875-607.037-431.875-598.7Zm20.322,15.215a7.63,7.63,0,0,0,7.564,7.65,7.63,7.63,0,0,0,7.677-7.59,7.629,7.629,0,0,0-7.565-7.649A7.627,7.627,0,0,0-411.552-583.49Zm1.713-33.217c-.011.189-.02.271-.02.353,0,1.922-.009,3.844,0,5.766a2.527,2.527,0,0,0,2.586,2.572c1.076.01,2.152,0,3.227,0h1.657Z"/>
    <path id="Path_595" data-name="Path 595" d="M-421.593-588.436q0-8.332,0-16.664a2.584,2.584,0,0,1,2.793-2.8c5.643,0,11.287.006,16.93-.012.491,0,.615.135.61.615-.025,2.327-.015,4.655-.01,6.983a4.22,4.22,0,0,0,4.251,4.265c1.781.006,3.563.02,5.343-.011.486-.009.577.148.575.6q-.025,6.375,0,12.749c0,.478-.111.537-.562.435a9.331,9.331,0,0,0-11.173,7.446,9.238,9.238,0,0,0,.69,5.467c.148.328.11.418-.263.417-5.555-.008-11.11,0-16.665-.011a2.545,2.545,0,0,1-2.517-2.65Q-421.6-580.024-421.593-588.436Zm15.212-2.535h8.677c.212,0,.423.008.635,0a.835.835,0,0,0,.877-.856.839.839,0,0,0-.9-.835c-.07,0-.141,0-.212,0H-415.4a2.169,2.169,0,0,0-.37.008.809.809,0,0,0-.742.823.821.821,0,0,0,.764.856,3.785,3.785,0,0,0,.423.006Zm.055,3.387h-8.994a3.938,3.938,0,0,0-.423.006.82.82,0,0,0-.766.854.809.809,0,0,0,.74.825,2.131,2.131,0,0,0,.37.008H-397.3a2.13,2.13,0,0,0,.37-.008.809.809,0,0,0,.74-.826.82.82,0,0,0-.767-.854,3.938,3.938,0,0,0-.423-.006Zm-5.135-8.467c1.357,0,2.715,0,4.073,0,.668,0,1.042-.316,1.034-.858-.007-.524-.371-.833-1-.834q-4.073,0-8.145,0c-.636,0-1,.307-1.008.83-.009.542.364.859,1.031.861C-414.14-596.048-412.8-596.051-411.46-596.051Z" transform="translate(-10.282 -10.269)" fill="#d6d6d6"/>
    <path id="Path_596" data-name="Path 596" d="M-277.92-408.7a7.627,7.627,0,0,1,7.676-7.589,7.629,7.629,0,0,1,7.565,7.649,7.63,7.63,0,0,1-7.677,7.59A7.63,7.63,0,0,1-277.92-408.7Zm6.638-1.252.135.079c0,1.477,0,2.955,0,4.432,0,.622.33,1,.844,1s.844-.377.847-1c.006-1.341,0-2.681.006-4.022,0-.144-.073-.311.135-.506.123.156.236.314.364.457a5.18,5.18,0,0,0,.412.411.846.846,0,0,0,1.23.03.832.832,0,0,0-.039-1.228q-1.142-1.177-2.319-2.321a.817.817,0,0,0-1.266,0q-1.177,1.143-2.319,2.321a.83.83,0,0,0-.044,1.227.834.834,0,0,0,1.228-.029C-271.787-409.365-271.542-409.668-271.282-409.953Z" transform="translate(-133.632 -174.788)" fill="#fdfdfe"/>
    <path id="Path_597" data-name="Path 597" d="M-265.949-597.473l7.453,8.694h-1.657c-1.076,0-2.152.008-3.227,0a2.527,2.527,0,0,1-2.586-2.572c-.012-1.922,0-3.844,0-5.766C-265.968-597.2-265.959-597.284-265.949-597.473Z" transform="translate(-143.891 -19.234)" fill="#fdfdfe"/>
    <path id="Path_598" data-name="Path 598" d="M-375.522-498.425h-8.941a3.8,3.8,0,0,1-.423-.006.821.821,0,0,1-.764-.856.809.809,0,0,1,.742-.823,2.163,2.163,0,0,1,.37-.008h18.094c.071,0,.141,0,.212,0a.839.839,0,0,1,.9.835.835.835,0,0,1-.877.856c-.211.009-.423,0-.635,0Z" transform="translate(-41.14 -102.814)"/>
    <path id="Path_599" data-name="Path 599" d="M-375.467-464.2h8.941a3.946,3.946,0,0,1,.423.006.821.821,0,0,1,.767.854.809.809,0,0,1-.74.826,2.129,2.129,0,0,1-.37.008H-384.54a2.131,2.131,0,0,1-.37-.008.809.809,0,0,1-.74-.825.82.82,0,0,1,.766-.854,3.946,3.946,0,0,1,.423-.006Z" transform="translate(-41.141 -133.655)"/>
    <path id="Path_600" data-name="Path 600" d="M-380.613-534.321c-1.34,0-2.68,0-4.02,0-.667,0-1.04-.318-1.031-.861.009-.524.371-.83,1.008-.83q4.073,0,8.145,0c.634,0,1,.31,1,.834.007.542-.366.856-1.034.858C-377.9-534.319-379.256-534.321-380.613-534.321Z" transform="translate(-41.129 -71.999)"/>
    <path id="Path_601" data-name="Path 601" d="M-244.723-389.492c-.26.286-.5.588-.785.853a.834.834,0,0,1-1.228.029.83.83,0,0,1,.044-1.227q1.144-1.176,2.319-2.321a.817.817,0,0,1,1.266,0q1.178,1.142,2.319,2.321a.832.832,0,0,1,.039,1.228.846.846,0,0,1-1.23-.03,5.174,5.174,0,0,1-.412-.411c-.128-.144-.241-.3-.364-.457-.207.195-.134.362-.135.506-.007,1.341,0,2.681-.006,4.022,0,.622-.332,1-.847,1s-.842-.379-.844-1c-.005-1.477,0-2.955,0-4.432Z" transform="translate(-160.192 -195.249)" fill="#2663c8"/>
  </g>
</svg>
