<svg id="Component_2_1" data-name="Component 2 – 1" xmlns="http://www.w3.org/2000/svg" width="13.495" height="18" viewBox="0 0 13.495 18">
  <path id="Path_9" data-name="Path 9" d="M-671.625,204c.352.08.714.131,1.056.244a4.487,4.487,0,0,1,3.05,4.556,4.5,4.5,0,0,1-3.749,4.135,4.505,4.505,0,0,1-5.2-3.8,4.5,4.5,0,0,1,3.953-5.1.864.864,0,0,0,.118-.03Zm-.39,1.5a2.988,2.988,0,0,0-2.993,2.977,2.988,2.988,0,0,0,2.972,3.015,2.985,2.985,0,0,0,3.019-2.985A2.987,2.987,0,0,0-672.016,205.5Z" transform="translate(678.76 -204)"/>
  <path id="Path_10" data-name="Path 10" d="M-711.811,435.617a.867.867,0,0,1-.6-.9,5.224,5.224,0,0,0-4.3-5.008,5.227,5.227,0,0,0-6.009,3.813,5.016,5.016,0,0,0-.167,1.159.9.9,0,0,1-.6.939h-.316a.806.806,0,0,1-.595-.948,6.77,6.77,0,0,1,4.238-6.065,6.739,6.739,0,0,1,8.706,3.6,6.587,6.587,0,0,1,.548,2.469.8.8,0,0,1-.593.948Z" transform="translate(724.395 -417.617)"/>
</svg>
